<?xml version="1.0" standalone="no"?><!DOCTYPE svg PUBLIC "-//W3C//DTD SVG 1.1//EN" "http://www.w3.org/Graphics/SVG/1.1/DTD/svg11.dtd"><svg t="1644896799911" class="icon" viewBox="0 0 1024 1024" version="1.1" xmlns="http://www.w3.org/2000/svg" p-id="1478" xmlns:xlink="http://www.w3.org/1999/xlink" width="200" height="200"><defs><style type="text/css"></style></defs><path d="M614.59647315 567.78596925L412.1652085 567.78596925c-157.83010607 0-286.2483026 128.41819653-286.24830263 286.24830261 0 74.28923629 60.48082806 134.63198025 134.63198026 134.63198026L766.07471143 988.66625212c74.28923629 0 134.63198025-60.48082806 134.63198026-134.63198026 0.13808409-157.83010608-128.28011246-286.24830261-286.11021854-286.24830261zM513.38084082 536.02663031c140.29342763 0 254.4889637-114.19553606 254.48896369-254.48896367S653.67426845 27.04870295 513.38084082 27.04870295s-254.4889637 114.19553606-254.48896368 254.48896368S373.08741319 536.02663032 513.38084082 536.02663031z m-54.40512843-206.84995529l119.85698345 0c13.2560719 0 23.33620992 12.56565149 19.60793969 25.26938706-10.90864251 36.5922818-44.87732675 63.38059378-85.05979471 63.38059378s-74.1511522-26.78831197-85.05979469-63.38059378c-3.72827022-12.70373557 6.35186779-25.26938706 30.65466626-25.26938706z" p-id="1479"></path></svg>