<?xml version="1.0" standalone="no"?>
<!DOCTYPE svg PUBLIC "-//W3C//DTD SVG 1.1//EN" "http://www.w3.org/Graphics/SVG/1.1/DTD/svg11.dtd">
<svg class="icon" viewBox="0 0 32 32" version="1.1" xmlns="http://www.w3.org/2000/svg" p-id="1052" xmlns:xlink="http://www.w3.org/1999/xlink" width="200" height="200"
>
  <defs><style type="text/css"></style></defs>
  <path
    d="M29.696 13.696h-14.688l4.576-4.576c0.864-0.864 0.864-2.336 0-3.232-0.864-0.864-2.336-0.864-3.232 0l-8.448 8.48c-0.864 0.864-0.864 2.336 0 3.232l8.448 8.448c0.448 0.448 1.056 0.672 1.632 0.672s1.184-0.224 1.632-0.672c0.864-0.864 0.864-2.336 0-3.232l-4.608-4.576h14.688c1.248 0 2.304-1.024 2.304-2.304s-1.024-2.24-2.304-2.24z"
  ></path>
  <path
    d="M2.304 5.248c-1.248 0-2.304 1.024-2.304 2.304v16.928c0 1.248 1.024 2.304 2.304 2.304s2.304-1.024 2.304-2.304v-16.928c-0.064-1.28-1.056-2.304-2.304-2.304z"
  ></path>
</svg>
